PathFileType	4	(X/Y/Z)	Patient4_TMGait_0pt4_02_right_34.trc.trc
DataRate	CameraRate	NumFrames	NumMarkers	Units	OrigDataRate	OrigDataStartFrame	OrigNumFrames
77.348066298343	77.348066298343	5	33	mm	77.348066298343	71	       141
Frame#	Time	Sacral			L.Shoulder			Chest			R.Shoulder			Neck			R.ASIS			L.ASIS			R.Thigh.Superior			R.Thigh.Lateral			R.Thigh.Inferior			R.Patella			L.Thigh.Superior			L.Thigh.Lateral			L.Thigh.Inferior			L.Patella			L.Shank.Superior			L.Shank.Lateral			L.Shank.Inferior			R.Shank.Superior			R.Shank.Lateral			R.Shank.Inferior			R.Heel			R.Midfoot.Superior			R.Midfoot.Lateral			R.Toe			L.Heel			L.Midfoot.Lateral			L.Midfoot.Superior			L.Toe			L.Elbow			L.Wrist			R.Elbow			R.Wrist			
		X1	Y1	Z1	X2	Y2	Z2	X3	Y3	Z3	X4	Y4	Z4	X5	Y5	Z5	X6	Y6	Z6	X7	Y7	Z7	X8	Y8	Z8	X9	Y9	Z9	X10	Y10	Z10	X11	Y11	Z11	X12	Y12	Z12	X13	Y13	Z13	X14	Y14	Z14	X15	Y15	Z15	X16	Y16	Z16	X17	Y17	Z17	X18	Y18	Z18	X19	Y19	Z19	X20	Y20	Z20	X21	Y21	Z21	X22	Y22	Z22	X23	Y23	Z23	X24	Y24	Z24	X25	Y25	Z25	X26	Y26	Z26	X27	Y27	Z27	X28	Y28	Z28	X29	Y29	Z29	X30	Y30	Z30	X31	Y31	Z31	X32	Y32	Z32	X33	Y33	Z33	

71	45.745000000000	843.444927197084	1010.234883897111	517.452937221855	995.936896466876	1429.881048035905	304.206609971873	1129.318741655932	1359.749267457750	440.037403101976	1087.505795753862	1436.915541857481	626.801454837294	1010.174033462963	1491.911717289253	459.397706568955	1084.448535461855	933.499417537265	592.056642612338	1026.141469702747	958.859767292119	322.883482145369	1083.960982756854	723.453315258574	562.954953389330	992.718385117386	626.753752355086	636.143098353099	1046.169724001365	564.041423892573	548.336424330178	1031.116743130450	479.662251904821	555.416080635181	1101.474960507481	770.935037576619	349.412330412076	1042.136237692031	642.422224045752	281.372429272701	1146.655070751034	581.930258395778	336.803224492326	1170.057660820228	517.261896775049	334.473943402929	1151.835511585414	445.198977129715	324.612404254369	1080.833125083778	317.005948742811	276.666624302273	1167.468932203875	215.919320632156	328.401527589303	994.735680135937	394.636925492207	565.818841999857	918.322426459285	299.025273677604	634.412288604801	941.770458343935	200.700500496927	567.397922004041	792.803966893335	42.525969932843	544.715879074022	964.374859673932	95.468906297124	575.664314086734	877.524894828934	36.365730867753	617.824269004080	1085.673955354785	42.645289308767	601.676505654382	1080.557680219578	42.091319107425	370.666923678605	1151.688181544493	43.103621702963	288.310884443054	1226.603508174211	116.663434139860	307.631138865299	1357.480300387086	81.089812066866	276.832089123148	859.895337303198	1097.650289802729	223.362570107493	844.872907162359	836.305084738216	224.413430733468	1234.615383928179	1129.208224653293	733.278126107234	1438.247844996347	1238.217297070359	640.633395137079	
72	45.757928571429	845.055124148348	1008.733123344071	514.746303617614	995.392045019597	1428.977287242487	301.719906470186	1128.951773596963	1359.706545034024	437.773623191222	1086.278667150138	1436.411921007788	624.556455428310	1009.264241931369	1491.137143353797	456.952926972925	1086.255216595122	932.986736040151	590.278869197853	1028.540649687373	957.728989689636	321.081228843778	1084.822601972326	722.511439426483	561.757757870850	992.334134314055	626.229003519041	634.666167838488	1045.599213527110	562.996837275498	547.399714213004	1029.824308155381	478.457138302267	554.328049479168	1103.256835816617	768.112139178508	347.458417961850	1041.248990302781	639.715375440218	281.208366464859	1145.637752997168	578.882088814823	336.474055900490	1167.660929997824	513.610663362326	335.103461654293	1149.033849473638	441.497334052348	325.406010681781	1076.484862083585	313.898039150252	278.221447706745	1161.836439980078	212.058636180995	330.438929161426	992.581425965825	393.794302995510	564.818545914418	915.321923859499	299.061161525270	633.811432926278	937.735730997987	200.326656021402	567.021769884127	787.629983751738	42.701465040214	544.858519917370	959.229261742320	95.431782660617	575.664518294788	872.368757208480	36.383155423904	617.885479699778	1080.502222506522	42.371868273310	601.769735682600	1071.903126282649	40.973209688433	373.207462613947	1143.006510744713	40.536816506818	290.721633694541	1220.009812021262	111.599225877700	310.601157693818	1350.103352951749	72.357275736833	279.484319301625	860.619371320252	1096.307066484474	220.869366911555	847.882184672115	834.759486043876	221.932518777612	1233.893185803434	1127.977968679203	729.589049719324	1436.616777841568	1238.688430989687	636.987115268233	
73	45.770857142857	846.699740689810	1007.296206384840	511.881382932568	994.918778049113	1428.102382785700	299.074814382086	1128.598346229219	1359.794643476467	435.452247581529	1084.926864464466	1436.012710955839	622.250746870434	1008.349523266169	1490.454920072617	454.364070959778	1088.147178755774	932.528402879517	588.367228957999	1031.022925997867	956.812536057532	319.205482069586	1085.951288703347	721.647586448336	560.397280644824	992.206291970465	625.766745847717	632.997925778041	1045.299783244977	562.017162482132	546.269863496733	1028.849392591561	477.245309750511	553.048815205488	1105.072189617605	765.434357448003	345.513916224346	1040.628017658341	637.411786839900	280.728443231751	1144.735570870054	576.171019704685	336.138313302705	1165.308937825932	510.274031280367	335.640672373385	1146.380066032236	438.115630350535	325.966731846153	1072.448364891570	311.120097728316	279.279768571618	1156.381911789662	208.524688086212	332.142609282413	990.650514224692	392.989347206385	563.662810847460	912.499466861839	299.223524886598	633.102769634621	933.818512256018	200.057724415528	566.593043048334	782.480146421781	43.089722799708	545.037692001131	954.154481419471	95.442729930540	575.662303580410	867.250193843521	36.503813901030	617.952115758100	1075.354381975157	42.042252412032	601.867909894987	1063.451128462161	40.003657002848	375.165513977646	1134.607813058769	38.423149760757	292.614391180556	1213.487315631072	107.109939974410	313.289773150663	1342.901740268141	64.542106063408	281.948723293300	861.999226415435	1094.737427295383	218.090981936543	851.829530318052	832.999880366852	219.000056239567	1232.366640829970	1126.435021831156	726.066899343418	1434.959602759596	1237.707169109330	633.666533311683	
74	45.783785714286	848.322782609906	1006.029902274259	508.916080921119	994.527182178095	1427.332078029021	296.301066267003	1128.277113456273	1360.042361454522	433.073868652082	1083.535552877038	1435.779813739635	619.880783856001	1007.473527556558	1489.930544815940	451.652650920714	1090.051362459967	932.183959924027	586.290488818766	1033.460091678096	956.193420538573	317.220499516327	1087.296196760558	720.927311237221	558.826751114787	992.371134634951	625.406739224502	631.130473857718	1045.325372539399	561.157521789578	544.921397410003	1028.286854242933	476.050520607750	551.593347004273	1106.880506531940	763.117386415059	343.566754747848	1040.344816350429	635.656812518114	279.902242873744	1144.037911961244	573.971748212202	335.701030044108	1163.128509139548	507.447867722014	335.972004384770	1144.012450020805	435.232857188714	326.213345758562	1068.918462597478	308.829342533237	279.743235976125	1151.315398099577	205.504914063180	333.424723947400	989.014322905182	392.255539668783	562.369990289399	909.902992850343	299.566595577583	632.295972525187	930.063600743501	199.943838784013	566.129283175876	777.368993437882	43.785617930615	545.256547853284	949.190081447128	95.520889174301	575.668635290715	862.181903428443	36.774592471435	618.027538683578	1070.239378307558	41.654353320805	601.968070042783	1055.538657237212	39.235560428601	376.534827853274	1126.799934868925	36.835772997692	293.964813190582	1207.245296866216	103.424279165750	315.552037871960	1336.110369442659	58.051205136583	284.067441864314	864.080417642678	1093.012581460008	215.046517160642	856.702837767492	831.112403534678	215.632908547286	1230.034673251105	1124.634618068634	722.723495349131	1433.316742923779	1235.229304846309	630.694006834892	
75	45.796714285714	849.877554888332	1005.028108945869	505.896862925694	994.219098368194	1426.744583419042	293.435730937669	1128.001753757410	1360.472940317030	430.640621427215	1082.188056520203	1435.769452949882	617.443032816120	1006.668602513427	1489.622453451316	448.847732320046	1091.893353228341	932.016816013128	584.021508948768	1035.742469265647	955.928878646491	315.080445213645	1088.792296741376	720.418231133829	557.007055238187	992.864461685614	625.186878187918	629.070703667054	1045.739741934568	560.472532615692	543.347569368613	1028.245770039282	474.894716809148	550.009493735899	1108.657449252396	761.352080452919	341.587117385119	1040.454681433104	634.540162771426	278.721178385383	1143.617307710640	572.395358587103	335.058728423536	1161.223411092252	505.253401651624	335.988583070228	1142.017970736438	432.953362988755	326.091245931098	1065.981560467919	307.123895886805	279.572440086735	1146.730972017621	203.106170621788	334.239649180105	987.757975671482	391.624622383011	560.981310289879	907.583880931186	300.144206629137	631.411328958596	926.524094407579	200.033984663722	565.657954799752	772.315467245418	44.888496088704	545.513481048717	944.380949468829	95.684158881138	575.697919058922	857.177040578882	37.244700765087	618.114665482784	1065.165445174783	41.212172018761	602.066399378299	1048.338015231583	38.690762088091	377.362494017668	1119.725578181856	35.770994516671	294.801330676381	1201.377460888898	100.647295720413	317.292319250738	1329.832048249529	53.083723905200	285.730063326489	866.889873135692	1091.218676639762	211.754076557726	862.500860950998	829.196405159527	211.855477572938	1226.906172988735	1122.649591505080	719.562927858506	1431.712951196739	1231.200991321100	628.081483252357	
